HIERARCHY
ROOT root
{
	OFFSET	0	13.1	24.9
	CHANNELS 6  Xposition Yposition Zposition Xrotation Yrotation Zrotation
	JOINT spine_1
	{
		OFFSET	0	9.99999	0
		CHANNELS 3  Xrotation Yrotation Zrotation
		JOINT spine_2
		{
			OFFSET	0	112	-10
			CHANNELS 3  Xrotation Yrotation Zrotation
			JOINT spine_3
			{
				OFFSET	0	206.5	19.3
				CHANNELS 3  Xrotation Yrotation Zrotation
				JOINT spine_4
				{
					OFFSET	0	110.4	14.6
					CHANNELS 3  Xrotation Yrotation Zrotation
					JOINT neck_1
					{
						OFFSET	0	71.8	-50.3
						CHANNELS 3  Xrotation Yrotation Zrotation
						JOINT neck_2
						{
							OFFSET	0	86.2	-25.8
							CHANNELS 3  Xrotation Yrotation Zrotation
							JOINT head_ee
							{
								OFFSET	0	179.8	-8.7
								CHANNELS 3  Xrotation Yrotation Zrotation
								End Site
								{
									OFFSET	1	0	0
								}
							}
						}
					}
					JOINT left_clavicle
					{
						OFFSET	-43.2	22.4	-70.8
						CHANNELS 3  Xrotation Yrotation Zrotation
						JOINT left_shoulder
						{
							OFFSET	-93.9	-5.79999	48.7
							CHANNELS 3  Xrotation Yrotation Zrotation
							JOINT left_elbow
							{
								OFFSET	-291.4	-30.8	15.2
								CHANNELS 3  Xrotation Yrotation Zrotation
								JOINT left_lowarm_twist
								{
									OFFSET	-110.7	-3.89999	13.6
									CHANNELS 3  Xrotation Yrotation Zrotation
									JOINT left_hand
									{
										OFFSET	-110.7	-3.89999	13.6
										CHANNELS 3  Xrotation Yrotation Zrotation
										JOINT left_ee
										{
											OFFSET	-80.8	-5.10001	12.1
											CHANNELS 3  Xrotation Yrotation Zrotation
											End Site
											{
												OFFSET	1	0	0
											}
										}
									}
								}
							}
						}
					}
					JOINT right_clavicle
					{
						OFFSET	43.2	22.4	-70.8
						CHANNELS 3  Xrotation Yrotation Zrotation
						JOINT right_shoulder
						{
							OFFSET	93.9	-5.79999	48.7
							CHANNELS 3  Xrotation Yrotation Zrotation
							JOINT right_elbow
							{
								OFFSET	291.4	-30.8	15.2
								CHANNELS 3  Xrotation Yrotation Zrotation
								JOINT right_lowarm_twist
								{
									OFFSET	110.7	-3.89999	13.6
									CHANNELS 3  Xrotation Yrotation Zrotation
									JOINT right_hand
									{
										OFFSET	110.7	-3.89999	13.6
										CHANNELS 3  Xrotation Yrotation Zrotation
										JOINT right_ee
										{
											OFFSET	80.8	-5.10001	12.1
											CHANNELS 3  Xrotation Yrotation Zrotation
											End Site
											{
												OFFSET	1	0	0
											}
										}
									}
								}
							}
						}
					}
				}
			}
		}
	}
	JOINT left_hip
	{
		OFFSET	-82.8	-127.5	0.300001
		CHANNELS 3  Xrotation Yrotation Zrotation
		JOINT left_knee
		{
			OFFSET	-28.2	-396.7	2.2
			CHANNELS 3  Xrotation Yrotation Zrotation
			JOINT left_ankle
			{
				OFFSET	-11.7	-411.3	35.4
				CHANNELS 3  Xrotation Yrotation Zrotation
				JOINT left_toes
				{
					OFFSET	0	-60	-88.6
					CHANNELS 3  Xrotation Yrotation Zrotation
					JOINT left_foot_ee
					{
						OFFSET	-22.5	-16.5	-42.2
						CHANNELS 3  Xrotation Yrotation Zrotation
						End Site
						{
							OFFSET	1	0	0
						}
					}
				}
			}
		}
	}
	JOINT right_hip
	{
		OFFSET	82.8	-127.5	0.300001
		CHANNELS 3  Xrotation Yrotation Zrotation
		JOINT right_knee
		{
			OFFSET	28.2	-396.7	2.2
			CHANNELS 3  Xrotation Yrotation Zrotation
			JOINT right_ankle
			{
				OFFSET	11.7	-411.3	35.4
				CHANNELS 3  Xrotation Yrotation Zrotation
				JOINT right_toes
				{
					OFFSET	0	-60	-88.6
					CHANNELS 3  Xrotation Yrotation Zrotation
					JOINT right_foot_ee
					{
						OFFSET	22.5	-16.5	-42.2
						CHANNELS 3  Xrotation Yrotation Zrotation
						End Site
						{
							OFFSET	1	0	0
						}
					}
				}
			}
		}
	}
}
MOTION
Frames: 11
Frame Time: 0.02
3347.37 767.042 -383.458 -149.721 -46.7493 -146.637 9.75651 -0.389119 -2.35331 9.75956 -0.238627 -2.37329 9.7627 -0.140431 -2.38111 9.75516 -0.514619 -2.3291 -21.5615 -5.41654 -4.35438 -21.6167 -8.36196 -6.44512 -0.0 0.0 -0.0 5.32992 13.0278 10.3938 -20.6509 -21.3636 58.0932 1.54764 -37.4732 0.524978 -16.5211 -0.865416 1.91978 -1.38926 16.5342 -1.77483 -0.0 0.0 -0.0 4.04806 4.10275 -7.58864 -39.492 27.1688 -64.5932 0.516241 14.345 -0.0649654 36.1276 0.163317 4.53663 0.257013 -15.6851 -8.00733 0.0 0.0 0.0 31.1738 -10.5541 -8.39342 -19.1192 0.305079 2.90455 8.57243 26.8628 -1.29395 33.2948 -0.0 -0.0 -0.0 0.0 -0.0 37.7882 0.113816 -6.73839 -8.1627 -0.249028 -1.22692 -17.388 -5.97763 -2.61386 18.7393 -0.0 -0.0 0.0 0.0 0.0 
3352.13 766.098 -372.813 -148.878 -47.6465 -145.868 9.83892 -0.478156 -2.10796 9.84133 -0.343083 -2.1341 9.84861 -0.257959 -2.14605 9.84267 -0.593577 -2.07843 -20.5528 -5.95552 -3.41614 -20.66 -9.78664 -5.7209 -0.0 0.0 -0.0 5.32985 12.696 10.3981 -23.0733 -20.9769 57.7273 1.50461 -36.6963 0.499031 -16.6177 -0.872072 1.9302 -1.09488 16.8817 0.178944 -0.0 0.0 -0.0 3.82914 3.66455 -7.17701 -38.529 27.3256 -65.2247 0.550127 15.2441 -0.0736184 35.8291 0.15028 4.50076 0.227771 -15.4993 -7.75419 0.0 0.0 0.0 31.051 -9.72669 -8.32906 -19.1806 0.304489 2.91394 10.1667 26.4692 -1.52367 33.4548 -0.0 -0.0 -0.0 0.0 -0.0 38.171 0.175167 -7.18845 -9.88609 -0.279102 -1.48965 -17.8968 -9.28951 -2.68815 19.1155 -0.0 -0.0 0.0 0.0 0.0 
3359.4 768.431 -372.242 -148.16 -48.8293 -145.163 9.79126 -0.402665 -2.03365 9.79352 -0.272471 -2.05514 9.79822 -0.188673 -2.06452 9.79264 -0.512292 -2.00885 -19.2908 -6.13546 -5.95546 -19.2877 -8.72769 -8.01529 -0.0 0.0 -0.0 5.61134 12.4263 10.881 -22.7134 -22.0051 59.5501 1.2564 -31.8961 0.359047 -15.7838 -0.81518 1.83986 -0.864429 17.3807 1.79832 -0.0 0.0 -0.0 4.29348 4.96333 -8.03247 -35.5002 26.6199 -65.3448 0.46865 13.0702 -0.0536871 36.3234 0.171969 4.56011 0.381825 -15.0127 -8.53266 0.0 0.0 0.0 31.0046 -8.72431 -8.01688 -19.2895 0.303416 2.93062 10.4837 26.8243 -1.57293 32.8908 -0.0 -0.0 -0.0 0.0 -0.0 36.51 0.738994 -6.63026 -8.04772 -0.246741 -1.20942 -18.3345 -8.29072 -2.75447 18.5482 -0.0 -0.0 0.0 0.0 0.0 
3364.35 767.806 -369.12 -147.787 -49.3674 -144.79 9.70875 -0.272003 -2.0177 9.71101 -0.143088 -2.03091 9.71117 -0.0572071 -2.03514 9.70559 -0.377836 -2.00059 -18.052 -5.98501 -7.25833 -17.9672 -7.58553 -9.04969 -0.0 0.0 -0.0 5.53663 11.7976 10.7636 -23.0451 -22.9426 60.9341 1.1518 -29.7067 0.305476 -14.6795 -0.741889 1.719 -0.593146 17.076 3.32154 -0.0 0.0 -0.0 3.64543 5.3654 -6.69951 -34.2603 25.8106 -65.6516 0.555505 15.3861 -0.0750389 37.138 0.208831 4.65752 0.94904 -13.0389 -11.4027 0.0 0.0 0.0 30.7886 -8.41071 -7.84771 -19.7817 0.298172 3.00597 11.6083 26.9229 -1.73648 32.1706 -0.0 -0.0 -0.0 0.0 -0.0 35.1392 2.63397 -6.34474 -5.83284 -0.195832 -0.873363 -18.9434 -3.82228 -2.8571 17.8464 -0.0 -0.0 0.0 0.0 0.0 
3371.0 770.777 -364.845 -146.859 -50.35 -143.801 9.58731 -0.182112 -2.00435 9.58954 -0.0542267 -2.01187 9.58673 0.0351987 -2.0123 9.58119 -0.282984 -1.99262 -17.2141 -6.0608 -8.84729 -17.0383 -6.72515 -10.4863 -0.0 0.0 -0.0 5.71785 11.8445 11.0745 -23.5885 -22.9126 62.3404 1.04445 -27.3559 0.254189 -13.8951 -0.691255 1.63231 -0.450345 17.7731 4.47755 -0.0 0.0 -0.0 3.43894 5.48321 -6.27461 -33.1961 25.4817 -66.9749 0.482798 13.4506 -0.0569323 36.9711 0.201165 4.63761 1.01444 -12.6652 -11.6879 0.0 0.0 0.0 30.6496 -7.71502 -7.70483 -19.7155 0.298915 2.99583 11.1157 27.7917 -1.67439 32.3559 -0.0 -0.0 -0.0 0.0 -0.0 33.9637 2.94074 -6.08305 -4.9539 -0.172033 -0.740577 -19.361 -3.98234 -2.91988 16.899 -0.0 -0.0 0.0 0.0 0.0 
3378.51 766.365 -359.596 -147.054 -51.6741 -143.813 9.42992 -0.238556 -1.96878 9.43207 -0.112819 -1.97996 9.43148 -0.0194131 -1.98308 9.42615 -0.332299 -1.95515 -16.8951 -6.2221 -10.2301 -16.6362 -6.20028 -11.8074 -0.0 0.0 -0.0 5.74812 12.1379 11.1206 -24.4181 -23.0662 62.9102 0.976243 -25.808 0.223666 -13.5063 -0.666604 1.5891 -0.233564 18.1629 5.95058 -0.0 0.0 -0.0 3.20948 5.80091 -5.78817 -32.8149 25.2526 -67.0072 0.495286 13.7854 -0.0598726 37.4304 0.2224 4.69236 1.27571 -10.6819 -12.6668 0.0 0.0 0.0 30.4331 -8.79372 -7.24141 -21.6605 0.272213 3.29306 9.47114 28.1917 -1.43759 32.8914 -0.0 -0.0 -0.0 0.0 -0.0 33.1043 3.46825 -5.46425 -6.29809 -0.207603 -0.943792 -17.9787 -1.09368 -2.72457 16.7002 -0.0 -0.0 0.0 0.0 0.0 
3383.73 765.372 -356.575 -146.765 -52.3811 -143.633 9.61436 -0.263767 -1.93415 9.61643 -0.140181 -1.94701 9.61674 -0.0546261 -1.95128 9.61161 -0.362052 -1.91819 -17.2911 -6.03184 -10.9076 -16.9851 -5.53499 -12.3968 -0.0 0.0 -0.0 5.5557 12.3289 10.7878 -25.3982 -23.019 63.8092 1.04555 -27.3806 0.254697 -12.521 -0.605447 1.47884 -0.0723205 18.3238 6.99319 -0.0 0.0 -0.0 2.76327 5.75664 -4.89011 -32.6957 25.1969 -67.2435 0.559846 15.5005 -0.0761947 37.9149 0.245278 4.74994 1.61458 -8.47077 -14.1051 0.0 0.0 0.0 29.9142 -10.5667 -6.63484 -22.4333 0.258803 3.41089 7.5364 28.2317 -1.15067 32.2885 -0.0 -0.0 -0.0 0.0 -0.0 32.2385 4.03067 -5.01787 -6.06526 -0.201784 -0.908535 -16.3105 1.70148 -2.48849 16.2692 -0.0 -0.0 0.0 0.0 0.0 
3385.66 767.097 -352.653 -146.84 -52.735 -143.977 9.71719 -0.272348 -1.88709 9.71915 -0.151737 -1.90059 9.71989 -0.0716446 -1.90529 9.71501 -0.371598 -1.87009 -17.0675 -6.25222 -11.3841 -16.7321 -5.64445 -12.904 -0.0 0.0 -0.0 5.44357 12.0243 10.6007 -26.4239 -22.2576 64.2951 1.01175 -26.619 0.23935 -11.561 -0.547694 1.37041 0.0598165 18.1239 7.72099 -0.0 0.0 -0.0 2.43601 6.24555 -4.18822 -33.019 25.0608 -67.2955 0.69004 18.8718 -0.114681 38.699 0.283328 4.8427 1.87431 -6.50787 -15.1324 0.0 0.0 0.0 29.5113 -12.6717 -6.106 -22.5479 0.25668 3.42835 4.6026 28.4425 -0.709242 30.7627 -0.0 -0.0 -0.0 0.0 -0.0 31.5158 4.58019 -4.82736 -6.12504 -0.203292 -0.917585 -15.1007 4.72302 -2.32762 15.973 -0.0 -0.0 0.0 0.0 0.0 
3391.44 770.04 -348.029 -146.908 -52.4772 -144.487 9.89894 -0.247857 -1.86208 9.90086 -0.128888 -1.87407 9.9008 -0.0558495 -1.87766 9.89605 -0.35164 -1.8453 -17.4624 -5.36327 -9.66418 -17.2232 -4.97254 -11.0083 -0.0 0.0 -0.0 5.15108 11.4406 10.1036 -27.4384 -22.1821 65.8022 0.971684 -25.7031 0.221686 -10.3574 -0.47788 1.23317 0.0335716 17.2135 7.21084 -0.0 0.0 -0.0 2.25154 5.83139 -3.85094 -32.67 25.679 -66.4098 0.845247 22.7194 -0.169816 39.6442 0.330886 4.95383 1.87123 -5.00664 -14.5504 0.0 0.0 0.0 28.9325 -14.0603 -5.66148 -22.9845 0.248268 3.49482 1.33016 28.6444 -0.206853 28.8416 -0.0 -0.0 -0.0 0.0 -0.0 30.7458 4.9998 -4.61434 -5.41805 -0.184855 -0.810655 -13.7106 5.79267 -2.12054 16.0336 -0.0 -0.0 0.0 0.0 0.0 
3396.74 769.002 -344.067 -146.608 -52.1132 -144.672 10.2883 -0.292879 -1.87621 10.2902 -0.172919 -1.89104 10.2913 -0.112139 -1.89561 10.2866 -0.410057 -1.85414 -18.5544 -4.65547 -7.63899 -18.4163 -4.89071 -8.92696 -0.0 0.0 -0.0 4.64304 11.2092 9.2288 -28.8391 -22.9196 66.9559 1.00759 -26.5245 0.237488 -8.9446 -0.399642 1.07026 -0.355209 17.7388 5.04205 -0.0 0.0 -0.0 2.02032 5.5137 -3.41295 -31.8937 24.6957 -66.1612 1.02329 26.8802 -0.244545 42.6397 0.49364 5.30067 1.17398 -0.8785 -8.22081 0.0 0.0 0.0 28.3298 -14.3497 -5.29128 -22.1558 0.263801 3.36861 0.944293 28.9509 -0.147266 27.7844 -0.0 -0.0 -0.0 0.0 -0.0 29.9409 5.58065 -4.43507 -3.17165 -0.117532 -0.472496 -12.0757 2.72348 -1.8415 17.0055 -0.0 -0.0 0.0 0.0 0.0 
3401.94 767.931 -339.688 -146.732 -51.5279 -145.324 10.4278 -0.28591 -1.89678 10.4298 -0.164656 -1.91113 10.4306 -0.107887 -1.91517 10.4257 -0.408945 -1.87412 -18.7417 -4.65994 -6.44984 -18.6603 -5.55706 -7.83731 -0.0 0.0 -0.0 3.92811 10.7256 7.98971 -28.7248 -23.4516 68.7292 1.00811 -26.5364 0.237721 -8.13097 -0.35642 0.975598 -0.210799 17.9564 6.00729 -0.0 0.0 -0.0 1.7018 5.74597 -2.74978 -31.7693 26.4379 -65.5289 1.06495 27.813 -0.263684 41.5848 0.434248 5.17948 1.2478 -0.85697 -8.70976 0.0 0.0 0.0 28.0663 -13.7081 -4.97646 -22.3102 0.261046 3.39214 0.447483 28.9101 -0.0698438 26.0264 -0.0 -0.0 -0.0 0.0 -0.0 29.3019 5.89462 -4.26051 -1.75605 -0.068311 -0.260824 -10.795 3.40428 -1.64768 16.7138 -0.0 -0.0 0.0 0.0 0.0 
